PathFileType	4	(X/Y/Z)	C:/Users/beibeiliu/ov580/test_trc/capture2\sequence.17_training_dense_left.trc
DataRate	CameraRate	NumFrames	NumMarkers	Units	OrigDataRate	OrigDataStartFrame	OrigNumFrames
120	120	24	19	mm	120	201	400
Frame#	Time	ThumbCMC			ThumbMCP			ThumbIP			ThumbTip			IndexMCP			IndexPIP			IndexTip			MiddleMCP			MiddlePIP			MiddleTip			RingMCP			RingPIP			RingTip			PinkyMCP			PinkyPIP			PinkyTip			BackHand1			BackHand2			BackHand3	
		X0	Y0	Z0	X1	Y1	Z1	X2	Y2	Z2	X3	Y3	Z3	X4	Y4	Z4	X5	Y5	Z5	X6	Y6	Z6	X7	Y7	Z7	X8	Y8	Z8	X9	Y9	Z9	X10	Y10	Z10	X11	Y11	Z11	X12	Y12	Z12	X13	Y13	Z13	X14	Y14	Z14	X15	Y15	Z15	X16	Y16	Z16	X17	Y17	Z17	X18	Y18	Z18	
200	1.66667	-79.8455	34.0538	32.6974	-60.5164	24.0228	15.9672	-50.5469	13.398	-8.92355	-69.0267	4.49728	-27.8298	-73.2096	34.8854	-44.5967	-67.8345	16.9436	-66.2661	-73.4526	-17.0511	-60.0046	-91.7654	34.458	-53.0705	-85.7293	4.53087	-73.2429	-97.0036	-19.5148	-49.6101	-107.098	34.7105	-51.5435	-106.83	10.8229	-73.0331	-106.136	-14.9019	-48.1613	-128.603	34.0386	-45.5246	-123.654	13.7768	-66.4179	-119.607	-15.3476	-48.3985	-123.302	53.8087	-7.08149	-132.014	62.0402	18.9692	-98.2859	57.0426	14.6607	
201	1.675	-76.8177	32.4004	35.7321	-54.8288	21.7132	22.5301	-48.4973	14.55	-3.16168	-62.06	5.63224	-26.957	-72.2831	38.1106	-38.7773	-68.3493	19.4061	-65.9986	-73.4293	-9.03575	-61.4377	-84.7693	39.5764	-51.1507	-84.655	11.6132	-72.3883	-93.4231	-15.5011	-52.7823	-107.586	40.7492	-54.2429	-105.827	13.2346	-71.9264	-107.368	-11.6178	-47.5192	-127.226	39.6023	-45.8402	-121.559	16.0504	-67.1165	-117.79	-8.96971	-50.17	-119.654	56.0994	-7.65455	-127.238	62.1958	24.9035	-94.7057	57.4576	19.3432	
202	1.68333	-78.0818	30.1544	41.9692	-59.8295	22.9962	19.6414	-49.5924	16.861	-4.14392	-58.9203	9.66672	-28.8506	-67.5152	43.8552	-32.558	-62.974	30.303	-64.1378	-72.8927	0.352192	-63.1761	-82.4338	46.7379	-45.6171	-79.2905	22.3975	-72.6032	-92.583	-6.31104	-57.9958	-100.854	47.0488	-48.4122	-98.9491	27.3244	-70.7621	-102.633	-2.26912	-53.7766	-122.833	45.2421	-45.0306	-119.337	28.7195	-65.6581	-115.057	-2.77823	-53.8613	-115.991	57.6242	-2.55537	-124.486	63.2414	27.2924	-92.787	55.4213	19.6107	
203	1.69167	-76.0833	29.2808	40.8624	-55.3677	21.94	20.7115	-45.9497	19.2054	-4.94805	-60.0253	17.366	-26.8209	-68.1492	51.9517	-29.5438	-60.2045	44.7053	-59.281	-70.4994	11.9455	-64.9731	-81.7208	55.2519	-41.265	-76.6619	37.2302	-70.2547	-84.8569	4.37852	-60.1182	-103.187	55.8267	-45.2685	-96.9024	33.5264	-69.186	-103.544	4.31689	-53.2304	-122.63	52.2793	-37.7702	-115.328	37.0269	-64.3068	-111.55	9.29387	-56.2085	-117.903	61.8728	0.784325	-129.409	63.8149	31.5947	-89.7821	55.1299	25.8668	
204	1.7	-79.8913	28.7393	41.2002	-56.4221	23.7013	22.9549	-48.9071	22.6543	0.272134	-58.9273	24.1739	-28.9866	-63.0364	60.4684	-26.9562	-63.9267	54.9541	-56.7454	-68.4494	22.4924	-64.2124	-82.8028	65.0601	-37.8865	-77.4786	52.6124	-67.1979	-87.9643	16.6453	-61.6823	-99.0849	63.808	-39.9919	-95.7055	45.2172	-67.0425	-101.036	16.9884	-56.9704	-122.047	60.6913	-34.1846	-114.942	49.2961	-62.0381	-112.133	17.4851	-58.0179	-114.802	64.2962	8.36465	-125.354	61.3837	36.1227	-92.3286	57.2041	31.4239	
205	1.70833	-76.488	26.8347	43.948	-57.4709	23.0946	27.2293	-47.5465	29.3257	-1.47806	-53.8973	32.0742	-26.0813	-65.6183	65.8004	-16.8294	-57.3469	66.7459	-49.5973	-65.648	38.0531	-63.3453	-78.7488	73.1353	-30.3833	-77.6334	64.2151	-62.7593	-85.0057	26.6332	-59.1486	-100.751	74.9804	-37.4338	-96.2125	57.9163	-64.5957	-95.3457	28.2048	-56.3652	-117.42	70.354	-31.6008	-112.952	60.8152	-57.996	-105.587	31.3727	-58.535	-115.051	68.4056	13.881	-131.028	61.0961	39.146	-94.881	57.1396	35.4305	
206	1.71667	-78.5641	26.7401	44.3041	-58.2731	25.3592	27.8497	-48.0791	33.1735	3.18208	-53.7537	40.8781	-24.742	-67.4369	73.1562	-10.8883	-56.9998	75.9567	-43.0733	-61.4009	48.8683	-59.0545	-77.4334	80.5484	-24.4282	-76.8995	73.9804	-56.1173	-80.0287	38.4115	-56.0574	-100.756	80.5765	-28.0009	-92.2849	69.6063	-57.7967	-96.9812	35.4882	-51.0722	-120.042	73.7059	-23.4273	-109.755	70.1631	-52.2026	-101.395	37.6608	-53.4258	-114.86	69.6828	19.1268	-132.101	59.7853	45.3292	-92.2866	56.0225	38.6277	
207	1.725	-80.7225	25.3366	48.215	-57.3897	25.5117	31.2168	-44.1848	37.2908	7.37799	-48.3732	45.3851	-17.6422	-64.0729	78.2257	-4.40583	-55.2986	84.0683	-32.4206	-59.1422	59.6171	-52.38	-78.0864	86.3541	-17.6727	-73.1132	82.769	-48.3568	-79.0204	44.8714	-51.9978	-94.4992	84.6754	-21.7313	-93.2239	77.9166	-51.7519	-91.5974	45.1572	-48.5668	-120.21	80.9888	-20.9646	-110.002	77.1512	-49.0948	-103.996	43.8093	-49.9482	-115.87	68.8377	24.0988	-129.878	60.0368	47.1073	-96.0793	54.4036	45.7594	
208	1.73333	-80.824	22.2975	50.5923	-58.9207	27.5054	32.6916	-41.6893	37.8006	11.1446	-48.6793	48.4786	-16.3275	-65.8011	79.8133	0.76279	-53.0809	88.4772	-27.5056	-57.4142	64.95	-48.3481	-78.6641	87.8678	-10.4531	-70.2024	85.6432	-42.6445	-77.7373	47.2154	-46.9727	-98.4944	88.1207	-16.6133	-85.9114	79.2186	-46.4066	-89.5254	46.289	-43.9884	-114.447	81.8228	-15.3556	-104.554	78.2809	-44.261	-100.002	51.3474	-48.3469	-117.26	66.8191	27.7352	-132.048	56.1983	49.2971	-97.4787	54.1841	46.9193	
209	1.74167	-80.3348	21.5601	51.1213	-57.418	24.0259	36.7406	-41.4829	39.1237	11.973	-48.119	48.0393	-10.7903	-63.7844	76.8464	6.08548	-55.5211	89.0166	-23.2517	-58.3647	64.4923	-45.8501	-78.9529	88.8317	-8.45647	-70.0487	86.5571	-41.8131	-71.0762	49.4479	-45.0312	-94.1355	87.1945	-12.5318	-84.3999	84.047	-43.1093	-86.3976	47.9043	-42.4157	-116.387	82.6585	-14.5618	-106.288	80.8712	-43.0445	-97.6198	48.7627	-44.6617	-116.815	68.1735	28.7492	-126.215	56.1751	48.8496	-97.0813	53.5726	50.3809	
210	1.75	-78.1768	23.1849	50.6551	-56.7204	23.4357	35.7394	-43.3105	36.4777	13.9003	-47.3716	47.6682	-11.8861	-59.7314	79.3846	6.3391	-51.9295	88.8757	-23.5376	-57.6087	66.674	-44.6572	-76.2777	88.9351	-8.43836	-68.3949	88.1707	-37.0981	-74.2926	47.985	-43.2142	-96.1675	87.9583	-13.6214	-84.8574	84.5182	-40.2214	-85.4194	50.4295	-42.7002	-117.789	82.1301	-12.004	-104.948	80.9208	-41.4978	-95.1253	50.8146	-44.4712	-115.346	66.1671	32.4346	-130.933	51.5152	52.0358	-92.8925	52.6978	48.3678	
211	1.75833	-80.0863	20.9602	50.2525	-56.6964	25.5566	33.5109	-40.4497	36.2003	12.4822	-48.3485	44.1969	-9.24195	-60.0546	79.3632	6.30479	-55.8451	89.0863	-21.5009	-58.1922	63.2825	-46.0527	-79.2705	87.4665	-7.13462	-70.1645	87.9533	-37.1864	-75.4136	48.1612	-43.5273	-96.1228	89.4372	-14.5193	-86.1746	82.2601	-43.3521	-86.448	47.5349	-41.7015	-115.324	82.4378	-12.885	-105.559	80.8096	-38.8339	-95.2233	51.6748	-45.2115	-117.419	67.2742	28.7159	-129.858	52.7045	49.2001	-90.9488	51.786	50.9581	
212	1.76667	-75.3607	20.1383	52.5967	-52.6291	22.1488	37.4667	-42.1161	36.8261	12.2266	-51.4418	44.1023	-10.2357	-62.7461	78.1936	5.97628	-56.0708	89.3901	-20.89	-56.7052	64.5106	-44.6793	-76.5055	84.3618	-4.65118	-74.3075	86.9477	-38.2425	-73.2568	49.8889	-43.8049	-97.1219	86.252	-11.1266	-87.0494	81.306	-41.9239	-87.0706	51.3101	-44.199	-117.724	76.3011	-9.70228	-106.861	80.618	-38.3471	-101.121	50.662	-45.7321	-119.601	63.7068	29.5869	-131.696	50.3618	52.7296	-96.2553	50.5397	47.3315	
213	1.775	-81.6409	20.2754	51.5345	-53.1659	23.2542	35.8013	-45.5724	38.5598	12.4815	-54.8758	49.1484	-14.0195	-65.9466	80.9963	5.3781	-57.2937	90.5967	-20.7287	-61.7028	68.4095	-43.3665	-79.2451	89.745	-8.01048	-73.5447	90.505	-36.1029	-77.5914	54.1765	-45.6657	-100.272	87.1264	-10.4475	-89.3354	85.1542	-41.0476	-86.1134	53.9367	-44.8324	-117.89	78.4266	-10.7579	-105.968	80.8426	-37.5944	-98.8474	49.3497	-46.311	-120.843	64.4063	28.9393	-132.331	49.3594	50.7987	-95.1431	48.3989	50.854	
214	1.78333	-80.6881	21.5442	51.299	-56.2674	27.8767	33.17	-46.9612	40.8732	10.6745	-56.5614	47.753	-10.6911	-66.6177	82.0659	7.49769	-62.1415	92.7202	-19.5668	-59.6372	67.8386	-42.6025	-81.7326	88.771	-3.65602	-71.3714	90.722	-36.7404	-73.4834	55.8644	-44.5658	-102.949	88.3392	-9.96013	-93.5644	89.9376	-39.3804	-90.0486	54.6208	-44.0261	-120.667	79.9248	-9.9638	-108.667	81.8215	-38.8314	-100.42	50.1489	-46.1096	-119.018	66.6047	29.5588	-130.911	49.2954	51.23	-97.9244	52.5551	50.4841	
215	1.79167	-81.3755	25.0811	48.2123	-57.1307	29.8845	33.56	-47.1615	43.0439	10.5171	-56.5563	50.2871	-10.4059	-71.0853	80.8503	9.33716	-64.8359	97.8685	-16.8601	-62.9579	76.3201	-41.0881	-85.5424	94.4121	-5.2871	-76.3621	98.1545	-32.8988	-75.4061	59.9601	-45.7933	-101.467	93.9256	-10.0594	-97.2192	92.8908	-39.3633	-89.1001	60.8387	-44.9019	-123.658	84.1954	-10.4353	-111.765	87.0956	-36.2464	-100.182	55.7747	-46.1411	-122.478	66.3516	28.4692	-131.121	50.7929	54.1906	-96.831	55.6896	48.8942	
216	1.8	-83.265	25.6627	50.7242	-57.7802	34.4739	31.2613	-46.5761	46.0362	11.6247	-59.3652	56.0292	-12.1707	-71.6473	86.7028	10.4079	-65.2778	101.8	-19.1898	-62.1707	81.2556	-41.4693	-84.6411	95.9011	-0.775047	-76.7002	103.07	-34.0808	-79.1177	67.6906	-46.3145	-105.296	93.0724	-6.99085	-97.8398	96.3571	-38.2984	-89.7862	63.7142	-43.6157	-122.663	85.8711	-7.94916	-113.816	91.6321	-34.4898	-99.9167	62.3211	-45.2366	-120.239	69.306	30.6948	-134.422	53.654	50.0991	-99.3688	56.8619	48.853	
217	1.80833	-78.2511	32.4076	49.3924	-57.3544	39.2718	31.4918	-47.7641	49.7298	12.4596	-60.1707	60.0131	-10.6215	-71.9546	93.2084	10.7954	-67.699	108.256	-13.8091	-60.8707	86.2996	-39.2595	-87.7259	105.143	-1.52298	-79.8207	109.988	-30.6154	-78.5543	76.1886	-46.6481	-106.545	100.392	-7.69155	-101.186	102.735	-36.4234	-89.9226	68.5244	-42.1924	-126.24	86.8675	-7.36807	-118.602	95.5799	-35.3618	-102.771	65.9014	-43.0966	-122.09	72.801	31.3902	-135.09	54.0771	51.4553	-100.911	60.4798	49.3373	
218	1.81667	-79.8604	37.1116	49.4718	-58.3049	42.5843	34.1515	-48.8214	58.1869	12.4312	-60.5808	66.9977	-11.6467	-74.9239	97.0742	12.7212	-69.4552	113.391	-12.0978	-61.7374	91.4156	-37.5715	-92.15	109.832	1.08703	-85.0753	116.228	-27.6199	-79.6145	81.6094	-44.5237	-110.731	102.882	-4.28993	-98.9729	107.861	-34.5732	-93.7393	77.8499	-42.7614	-130.446	90.6128	-5.94512	-115.021	99.8959	-32.1555	-101.911	71.5244	-42.7207	-124.403	75.6094	32.3972	-137.139	59.8332	52.1208	-103.357	64.3239	53.097	
219	1.825	-81.241	40.3521	50.4342	-57.0343	47.4974	35.5919	-48.5646	66.3331	11.7117	-61.0099	71.2636	-8.68107	-75.617	101.581	15.38	-71.3482	118.976	-10.9262	-62.3371	93.798	-35.9848	-92.6706	111.574	3.65914	-87.3706	121.979	-26.1397	-81.3639	88.8877	-43.9422	-110.291	110.858	-4.31167	-100.148	114.353	-29.6615	-92.847	81.1762	-41.3523	-126.654	95.3163	-4.2746	-119.933	105.427	-30.9784	-103.328	80.4343	-40.5503	-125.615	78.4567	31.4775	-135.167	63.0736	54.2838	-103.124	68.9765	51.0765	
220	1.83333	-80.1407	44.7929	52.7808	-57.8055	54.4209	36.7163	-46.9886	70.4458	15.2967	-65.1265	79.1261	-8.05485	-78.4542	107.718	15.7072	-70.8274	124.191	-11.1069	-63.5084	104.488	-34.1727	-91.9349	115.976	6.31357	-84.1343	127.755	-24.5231	-77.7387	93.6035	-42.0805	-112.322	116.418	-2.23994	-104.64	119.432	-30.3174	-94.1283	89.4793	-39.8943	-130.857	104.633	-4.41704	-120.037	111.581	-29.0061	-102.087	84.2025	-37.8684	-128.992	83.7292	30.512	-133.685	65.6692	52.2524	-101.471	73.5347	52.5259	
221	1.84167	-79.6983	51.1841	55.3398	-57.641	63.462	37.2648	-50.4346	80.9652	14.4091	-67.1024	88.1295	-8.07221	-81.9044	114.281	17.9681	-75.4357	132.129	-6.70597	-66.7803	110.485	-31.8906	-94.0959	124.921	8.95254	-89.3868	134.046	-23.7266	-81.1567	99.9063	-40.112	-112.368	120.794	1.70363	-105.2	125.643	-27.9859	-96.3057	93.099	-37.4408	-129.338	109.305	-0.926193	-121.597	117.392	-27.1938	-106.331	89.4398	-38.3346	-127.65	89.1308	33.2082	-140.663	68.7224	57.6355	-101.473	79.9095	55.0168	
222	1.85	-81.4425	58.0207	56.4071	-58.776	71.1684	39.4264	-52.1188	89.5486	17.3993	-71.7647	94.9211	-6.04817	-81.3321	120.469	22.5315	-75.1673	139.218	-2.52676	-67.4424	119.291	-28.4914	-96.9811	129.139	12.6025	-88.8603	140.209	-20.5156	-83.0727	106.561	-36.7714	-113.261	128.207	4.56365	-106.876	132.975	-24.6402	-98.8081	101.217	-35.4798	-133.084	110.627	2.48225	-122.201	122.43	-26.0383	-107.206	94.6927	-35.5518	-131.358	94.8566	36.2752	-137.974	73.3692	58.2073	-107.401	82.3183	58.0541	
223	1.85833	-80.0495	61.6955	60.0459	-59.025	70.3979	45.298	-54.9547	88.9444	23.4844	-67.4184	98.138	-1.1755	-81.9978	125.582	24.3436	-78.4454	142.321	-1.54176	-70.3551	119.605	-26.532	-100.179	134.392	12.3146	-89.2545	145.063	-15.9865	-80.1169	110.691	-33.906	-113.617	130.098	8.05968	-105.217	134.906	-22.9212	-96.3783	106.896	-31.4795	-131.042	119.179	4.86427	-120.102	127.393	-20.1039	-106.444	100.041	-32.6708	-128.652	98.3604	41.621	-141.704	79.5557	59.2972	-107.369	85.5882	58.9802	
